<?xml version="1.0" encoding="UTF-8" standalone="no"?>
<!DOCTYPE svg PUBLIC "-//W3C//DTD SVG 1.1//EN"
 "http://www.w3.org/Graphics/SVG/1.1/DTD/svg11.dtd">
<!-- Generated by graphviz version 7.1.0 (20230121.1956)
 -->
<!-- Pages: 1 -->
<svg width="753pt" height="355pt"
 viewBox="0.00 0.00 752.86 355.00" xmlns="http://www.w3.org/2000/svg" xmlns:xlink="http://www.w3.org/1999/xlink">
<g id="graph0" class="graph" transform="scale(1 1) rotate(0) translate(4 351)">
<polygon fill="#333333" stroke="none" points="-4,4 -4,-351 748.86,-351 748.86,4 -4,4"/>
<text text-anchor="middle" x="372.43" y="-9.2" font-family="Times New Roman,serif" font-size="16.00" fill="white">Network Map</text>
<!-- R5 -->
<g id="node1" class="node">
<title>R5</title>
<polygon fill="#006699" stroke="#006699" points="84.36,-223 7.36,-223 7.36,-150 84.36,-150 84.36,-223"/>
<text text-anchor="middle" x="45.86" y="-182.8" font-family="Helvetica,sans-Serif" font-size="14.00" fill="white">R5</text>
</g>
<!-- R4 -->
<g id="node2" class="node">
<title>R4</title>
<polygon fill="#006699" stroke="#006699" points="207.36,-223 130.36,-223 130.36,-150 207.36,-150 207.36,-223"/>
<text text-anchor="middle" x="168.86" y="-182.8" font-family="Helvetica,sans-Serif" font-size="14.00" fill="white">R4</text>
</g>
<!-- SW1 -->
<g id="node3" class="node">
<title>SW1</title>
<polygon fill="#006699" stroke="#006699" points="460.36,-223 369.36,-223 369.36,-150 460.36,-150 460.36,-223"/>
<text text-anchor="middle" x="414.86" y="-182.8" font-family="Helvetica,sans-Serif" font-size="14.00" fill="white">SW1</text>
</g>
<!-- R6 -->
<g id="node5" class="node">
<title>R6</title>
<polygon fill="#006699" stroke="#006699" points="453.36,-347 376.36,-347 376.36,-274 453.36,-274 453.36,-347"/>
<text text-anchor="middle" x="414.86" y="-306.8" font-family="Helvetica,sans-Serif" font-size="14.00" fill="white">R6</text>
</g>
<!-- SW1&#45;&#45;R6 -->
<g id="edge1" class="edge">
<title>SW1&#45;&#45;R6</title>
<path fill="none" stroke="green" stroke-dasharray="5,2" d="M414.86,-223.44C414.86,-239.33 414.86,-257.96 414.86,-273.81"/>
<text text-anchor="middle" x="464.86" y="-244.8" font-family="Courier,monospace" font-size="14.00" fill="white"> &#160;&#160;&#160;&#160;&#160;&#160;&#160;&#160;&#160;&#160;&#160;</text>
<text text-anchor="middle" x="389.86" y="-262.61" font-family="Courier,monospace" font-size="14.00" fill="white">Eth0/1</text>
<text text-anchor="middle" x="389.86" y="-227.24" font-family="Courier,monospace" font-size="14.00" fill="white">Eth0/5</text>
</g>
<!-- R2 -->
<g id="node4" class="node">
<title>R2</title>
<polygon fill="#006699" stroke="#006699" points="637.36,-99 560.36,-99 560.36,-26 637.36,-26 637.36,-99"/>
<text text-anchor="middle" x="598.86" y="-58.8" font-family="Helvetica,sans-Serif" font-size="14.00" fill="white">R2</text>
</g>
<!-- R2&#45;&#45;SW1 -->
<g id="edge3" class="edge">
<title>R2&#45;&#45;SW1</title>
<path fill="none" stroke="green" stroke-dasharray="5,2" d="M560.18,-96.03C540.94,-112.09 520.76,-128.73 515.86,-132 498.53,-143.57 478.43,-154.65 460.74,-163.69"/>
<text text-anchor="middle" x="583.86" y="-120.8" font-family="Courier,monospace" font-size="14.00" fill="white"> &#160;&#160;&#160;&#160;&#160;&#160;&#160;&#160;&#160;&#160;&#160;</text>
<text text-anchor="middle" x="485.74" y="-152.49" font-family="Courier,monospace" font-size="14.00" fill="white">Eth0/2</text>
<text text-anchor="middle" x="535.18" y="-84.83" font-family="Courier,monospace" font-size="14.00" fill="white">Eth0/0</text>
</g>
<!-- SW2 -->
<g id="node6" class="node">
<title>SW2</title>
<polygon fill="#006699" stroke="#006699" points="706.36,-223 615.36,-223 615.36,-150 706.36,-150 706.36,-223"/>
<text text-anchor="middle" x="660.86" y="-182.8" font-family="Helvetica,sans-Serif" font-size="14.00" fill="white">SW2</text>
</g>
<!-- R2&#45;&#45;SW2 -->
<g id="edge4" class="edge">
<title>R2&#45;&#45;SW2</title>
<path fill="none" stroke="green" stroke-dasharray="5,2" d="M628.1,-99.28C632.04,-105.01 635.78,-111.02 638.86,-117 644.13,-127.21 648.45,-138.93 651.83,-149.75"/>
<text text-anchor="middle" x="694.86" y="-120.8" font-family="Courier,monospace" font-size="14.00" fill="white"> &#160;&#160;&#160;&#160;&#160;&#160;&#160;&#160;&#160;&#160;&#160;</text>
<text text-anchor="middle" x="622.83" y="-138.55" font-family="Courier,monospace" font-size="14.00" fill="white">Eth0/11</text>
<text text-anchor="middle" x="603.1" y="-103.08" font-family="Courier,monospace" font-size="14.00" fill="white">Eth0/1</text>
</g>
<!-- R3 -->
<g id="node7" class="node">
<title>R3</title>
<polygon fill="#006699" stroke="#006699" points="207.36,-99 130.36,-99 130.36,-26 207.36,-26 207.36,-99"/>
<text text-anchor="middle" x="168.86" y="-58.8" font-family="Helvetica,sans-Serif" font-size="14.00" fill="white">R3</text>
</g>
<!-- R3&#45;&#45;R5 -->
<g id="edge7" class="edge">
<title>R3&#45;&#45;R5</title>
<path fill="none" stroke="green" stroke-dasharray="5,2" d="M129.93,-74.84C107.88,-83.15 81.46,-96.61 64.86,-117 57.3,-126.28 52.75,-138.37 50,-149.8"/>
<text text-anchor="middle" x="114.86" y="-120.8" font-family="Courier,monospace" font-size="14.00" fill="white"> &#160;&#160;&#160;&#160;&#160;&#160;&#160;&#160;&#160;&#160;&#160;</text>
<text text-anchor="middle" x="25" y="-138.6" font-family="Courier,monospace" font-size="14.00" fill="white">Eth0/0</text>
<text text-anchor="middle" x="104.93" y="-63.64" font-family="Courier,monospace" font-size="14.00" fill="white">Eth0/2</text>
</g>
<!-- R3&#45;&#45;R4 -->
<g id="edge6" class="edge">
<title>R3&#45;&#45;R4</title>
<path fill="none" stroke="green" stroke-dasharray="5,2" d="M168.86,-99.44C168.86,-115.33 168.86,-133.96 168.86,-149.81"/>
<text text-anchor="middle" x="218.86" y="-120.8" font-family="Courier,monospace" font-size="14.00" fill="white"> &#160;&#160;&#160;&#160;&#160;&#160;&#160;&#160;&#160;&#160;&#160;</text>
<text text-anchor="middle" x="143.86" y="-138.61" font-family="Courier,monospace" font-size="14.00" fill="white">Eth0/0</text>
<text text-anchor="middle" x="143.86" y="-103.24" font-family="Courier,monospace" font-size="14.00" fill="white">Eth0/1</text>
</g>
<!-- R3&#45;&#45;SW1 -->
<g id="edge5" class="edge">
<title>R3&#45;&#45;SW1</title>
<path fill="none" stroke="green" stroke-dasharray="5,2" d="M207.84,-82.83C251.6,-104.53 322.54,-139.71 368.95,-162.73"/>
<text text-anchor="middle" x="356.86" y="-120.8" font-family="Courier,monospace" font-size="14.00" fill="white"> &#160;&#160;&#160;&#160;&#160;&#160;&#160;&#160;&#160;&#160;&#160;</text>
<text text-anchor="middle" x="343.95" y="-151.53" font-family="Courier,monospace" font-size="14.00" fill="white">Eth0/3</text>
<text text-anchor="middle" x="232.84" y="-71.63" font-family="Courier,monospace" font-size="14.00" fill="white">Eth0/0</text>
</g>
<!-- R1 -->
<g id="node8" class="node">
<title>R1</title>
<polygon fill="#006699" stroke="#006699" points="453.36,-99 376.36,-99 376.36,-26 453.36,-26 453.36,-99"/>
<text text-anchor="middle" x="414.86" y="-58.8" font-family="Helvetica,sans-Serif" font-size="14.00" fill="white">R1</text>
</g>
<!-- R1&#45;&#45;SW1 -->
<g id="edge2" class="edge">
<title>R1&#45;&#45;SW1</title>
<path fill="none" stroke="green" stroke-dasharray="5,2" d="M414.86,-99.44C414.86,-115.33 414.86,-133.96 414.86,-149.81"/>
<text text-anchor="middle" x="464.86" y="-120.8" font-family="Courier,monospace" font-size="14.00" fill="white"> &#160;&#160;&#160;&#160;&#160;&#160;&#160;&#160;&#160;&#160;&#160;</text>
<text text-anchor="middle" x="439.86" y="-138.61" font-family="Courier,monospace" font-size="14.00" fill="white">Eth0/1</text>
<text text-anchor="middle" x="389.86" y="-103.24" font-family="Courier,monospace" font-size="14.00" fill="white">Eth0/0</text>
</g>
</g>
</svg>
